# xmcd
#
# Track frame offsets:
#  150
#  14299
#  38402
#  65021
#  85583
#  103491
#  123906
#  143228
#  154723
#
# Disc length: 2251 seconds
#
# Revision: 0
# Processed by: cddbd v1.5.1PL2 Copyright (c) Steve Scherf et al.
# Submitted via: Collectorz.com_Music_Collector 6.9
#
DISCID=6e08c909
DTITLE=Roxy Perry - New York Blues Queen
DYEAR=1998
DGENRE=Blues
TTITLE0=Do The Right Thing
TTITLE1=Way Down
TTITLE2=Men Like You
TTITLE3=Woo-Ooh
TTITLE4=The Blues Don't Knock
TTITLE5=Shakin' Off The Blues
TTITLE6=Struck Down
TTITLE7=Hey Mister
TTITLE8=Tailgate Swing
EXTD=
EXTT0=
EXTT1=
EXTT2=
EXTT3=
EXTT4=
EXTT5=
EXTT6=
EXTT7=
EXTT8=
PLAYORDER=
